<?xml version="1.0" encoding="UTF-8" standalone="no"?>
<!-- Created with Inkscape (http://www.inkscape.org/) -->

<svg
   xmlns:dc="http://purl.org/dc/elements/1.1/"
   xmlns:cc="http://creativecommons.org/ns#"
   xmlns:rdf="http://www.w3.org/1999/02/22-rdf-syntax-ns#"
   xmlns:svg="http://www.w3.org/2000/svg"
   xmlns="http://www.w3.org/2000/svg"
   xmlns:sodipodi="http://sodipodi.sourceforge.net/DTD/sodipodi-0.dtd"
   xmlns:inkscape="http://www.inkscape.org/namespaces/inkscape"
   width="336.10266mm"
   height="158.06294mm"
   viewBox="0 0 1190.9149 560.06554"
   id="svg4312"
   version="1.1"
   inkscape:version="0.91 r"
   sodipodi:docname="logo_XMOS_08_white2.svg"
   inkscape:export-filename="/home/lcgroup/otello/Documents/graphics/work/logo_XMOS_white.png"
   inkscape:export-xdpi="83.129997"
   inkscape:export-ydpi="83.129997">
  <defs
     id="defs4314" />
  <sodipodi:namedview
     id="base"
     pagecolor="#ffffff"
     bordercolor="#666666"
     borderopacity="1.0"
     inkscape:pageopacity="0.0"
     inkscape:pageshadow="2"
     inkscape:zoom="0.47306822"
     inkscape:cx="543.48905"
     inkscape:cy="575.60646"
     inkscape:document-units="px"
     inkscape:current-layer="layer1"
     showgrid="false"
     inkscape:window-width="1280"
     inkscape:window-height="978"
     inkscape:window-x="0"
     inkscape:window-y="0"
     inkscape:window-maximized="1"
     fit-margin-top="10"
     fit-margin-left="10"
     fit-margin-right="10"
     fit-margin-bottom="10"
     showguides="false"
     inkscape:guide-bbox="true">
    <sodipodi:guide
       position="279.02952,359.3562"
       orientation="-0.70710678,0.70710678"
       id="guide4135" />
  </sodipodi:namedview>
  <metadata
     id="metadata4317">
    <rdf:RDF>
      <cc:Work
         rdf:about="">
        <dc:format>image/svg+xml</dc:format>
        <dc:type
           rdf:resource="http://purl.org/dc/dcmitype/StillImage" />
        <dc:title />
      </cc:Work>
    </rdf:RDF>
  </metadata>
  <g
     inkscape:label="Layer 1"
     inkscape:groupmode="layer"
     id="layer1"
     transform="translate(1412.6004,610.52771)">
    <path
       style="display:inline;opacity:1;fill:#ffffff;fill-opacity:1;fill-rule:evenodd;stroke:none;stroke-width:0.5;stroke-linecap:butt;stroke-linejoin:miter;stroke-miterlimit:4;stroke-dasharray:none;stroke-opacity:1"
       d="M 35.683594 35.835938 L 35.683594 524.22852 C 284.45069 400.60227 906.02353 401.28073 1155.2324 524.22852 L 1155.2324 35.835938 C 906.02353 158.7836 284.45069 159.4621 35.683594 35.835938 z M 76.152344 155.66211 C 113.17234 158.54665 154.14803 162.8509 191.21875 166.85352 L 191.23828 166.85156 C 196.42028 167.41096 201.63847 167.97643 206.82227 168.53906 C 204.61267 181.35089 203.73944 195.89505 203.33984 210.8125 C 198.15594 210.57428 192.96682 210.33819 187.79102 210.10742 L 187.77148 210.11133 C 162.30718 208.9757 135.99187 207.90458 110.73438 207.14648 C 110.65638 221.40863 111.00071 240.17043 111.16211 254.75781 C 133.86461 254.90492 157.30734 255.14833 180.30664 255.42578 C 180.36464 275.62594 180.36641 284.27125 180.31641 304.49219 C 157.31051 304.74816 133.88809 304.96444 111.17969 305.08008 C 111.02579 319.56728 110.68225 338.6021 110.74805 352.79688 C 136.00635 352.07788 162.30183 351.03908 187.76953 349.92969 L 187.78711 349.92578 C 192.96231 349.70042 198.15078 349.47158 203.33398 349.23828 C 203.72018 364.21311 204.56722 378.8439 206.73242 391.75195 L 206.73242 391.75391 C 201.54682 392.3103 196.33204 392.86746 191.14844 393.41992 L 191.13086 393.42383 C 154.02276 397.37902 113.11791 401.60346 76.066406 404.40234 C 74.392606 391.62307 74.478444 168.04357 76.152344 155.66211 z M 1098.6309 157.24805 C 1099.8523 173.27358 1099.4789 190.30631 1098.8691 206.69727 C 1083.7899 207.05529 1068.5 207.5441 1053.2949 208.10547 C 1053.1435 208.11147 1052.5316 208.33259 1051.459 208.76953 C 1050.5435 209.00207 1049.7005 209.33092 1048.9316 209.75586 C 1044.9255 212.28388 1042.1125 215.45231 1040.4922 219.28711 C 1039.0222 223.11887 1038.2307 226.94244 1038.123 230.77148 C 1037.9929 235.40666 1038.8562 239.84559 1040.7129 244.09961 C 1042.5693 248.35336 1045.7468 251.292 1050.2246 252.89453 C 1052.3137 253.69748 1055.5287 254.49165 1059.8633 255.28516 C 1064.1962 256.07857 1068.148 256.88285 1071.7188 257.69336 C 1074.0984 258.30309 1076.7659 259.32876 1079.7207 260.77539 C 1082.6755 262.22175 1085.1783 263.77942 1087.2344 265.44531 C 1092.3789 269.40178 1096.6224 274.00358 1100.0176 279.23828 C 1103.5587 284.4702 1106.4058 290.02978 1108.5742 295.89258 C 1110.8858 301.54399 1112.5974 307.41913 1113.6992 313.48828 C 1114.9424 319.35232 1115.7088 325.01167 1115.9609 330.45508 C 1116.26 336.93418 1115.9219 343.53784 1114.877 350.19727 C 1113.9803 356.87064 1112.2847 363.30344 1109.7148 369.44531 C 1107.1447 375.58982 1103.5482 381.10575 1098.9062 385.9375 C 1094.4157 390.77932 1088.8398 394.49598 1082.2402 397.09961 C 1081.4543 397.42801 1080.5152 397.74228 1079.4219 398.03906 C 1078.3285 398.33571 1077.31 398.63499 1076.3672 398.93945 C 1074.9665 399.20202 1073.2577 399.43179 1071.2441 399.62695 C 1069.3856 399.83618 1068.2966 399.92181 1067.9941 399.89258 C 1052.006 398.34275 1035.6225 396.64748 1019.5957 394.94531 C 1020.7472 381.35921 1020.6927 366.11056 1020.4043 350.86914 C 1035.6601 351.52385 1051.0625 352.13834 1066.2148 352.65625 C 1066.5177 352.66655 1067.1194 352.48459 1068.0156 352.11133 C 1068.9118 351.73806 1069.7309 351.36139 1070.4746 350.98047 C 1074.3396 348.8776 1076.945 345.79432 1078.3027 341.72852 C 1079.6518 337.46183 1080.2543 333.55223 1080.127 330.04688 C 1079.9771 325.91953 1079.0053 321.66487 1077.2266 317.29688 C 1075.4472 312.92663 1072.3837 309.89217 1068.002 308.19727 C 1067.249 307.98372 1066.0418 307.66253 1064.3848 307.23438 C 1062.8721 306.60039 1061.1369 306.06893 1059.1777 305.63867 C 1057.3684 305.20965 1055.5589 304.7799 1053.748 304.35156 C 1051.9379 303.92328 1050.5051 303.60203 1049.4492 303.38672 C 1048.6936 303.17418 1047.7894 303.06401 1046.7363 303.05469 C 1045.8301 302.84087 1044.8457 302.52195 1043.7852 302.10156 C 1042.728 301.88682 1041.3649 301.36088 1039.6953 300.52539 C 1038.0258 299.68989 1036.2795 298.75408 1034.457 297.71484 C 1032.635 296.6759 1030.8136 295.63734 1028.9922 294.60156 C 1027.3195 293.36192 1025.9497 292.22796 1024.8848 291.19922 C 1020.3224 287.08235 1016.5284 282.57913 1013.5117 277.6875 C 1010.4954 272.59203 1008.033 267.52162 1006.1211 262.47656 C 1004.8837 258.78276 1003.8827 255.10405 1003.1152 251.44141 C 1002.7927 249.90244 1002.5117 248.36498 1002.2715 246.83203 C 1001.6155 241.4478 1001.3487 236.39853 1001.4551 231.68359 C 1001.6288 223.99061 1002.4748 217.18901 1003.959 211.24805 C 1004.7863 207.93752 1005.8143 204.88482 1007.041 202.07617 C 1010.6222 194.218 1014.871 187.24902 1019.752 181.07031 C 1019.875 180.90338 1020.219 180.46232 1020.6387 179.91211 C 1021.2336 179.32055 1021.8272 178.7305 1022.4199 178.13867 C 1023.1589 177.35337 1023.823 176.6655 1024.4121 176.07227 C 1025.1472 175.28594 1025.6622 174.79025 1025.9609 174.58398 C 1026.8462 173.78446 1027.8051 172.978 1028.8379 172.16211 C 1029.871 171.34598 1030.9781 170.51977 1032.1582 169.68555 C 1032.9012 169.25405 1033.6434 168.82196 1034.3848 168.38867 C 1035.1262 167.9555 1035.8675 167.52103 1036.6074 167.08594 C 1038.2414 166.20008 1040.4736 165.16294 1043.3086 163.96094 C 1046.1424 162.75925 1048.6244 162.04128 1050.7656 161.82227 C 1066.6601 160.19636 1082.7765 158.62882 1098.6309 157.24805 z M 263.54297 160.60156 C 282.63657 187.49039 302.77202 213.15299 323.94922 237.58789 C 347.77712 215.24537 372.74084 194.16148 398.83984 174.33594 C 410.12464 188.83085 421.77477 202.89482 433.79688 216.52148 C 408.99189 236.3657 385.32286 257.46891 362.78906 279.83008 C 385.20396 302.80723 408.65977 324.55879 433.1582 345.08203 C 421.06763 358.38268 409.37904 372.12597 398.08984 386.31445 C 372.29744 365.77264 347.54679 344.00372 323.83789 321.00781 C 302.65309 344.86395 282.60305 369.9786 263.68945 396.35156 C 248.31405 382.67388 233.30632 368.563 218.66602 354.01953 C 238.87302 327.6652 260.21536 302.56982 282.69336 278.73242 C 260.22286 254.27891 238.7951 228.59898 218.4082 201.69141 C 233.0531 187.55117 248.09687 173.85383 263.54297 160.60156 z M 912.55664 177.28125 C 920.99939 177.37145 929.18733 178.58979 936.9668 181.2168 C 948.5008 184.89568 958.38701 190.96148 966.56641 200.00977 C 974.75701 209.07126 980.91085 220.49162 985.37305 234.45312 C 989.80555 248.32171 991.88686 263.81506 991.88086 280.12891 C 991.87086 296.85219 989.79647 312.53304 985.35938 326.39453 C 980.89288 340.34722 974.65745 351.65521 966.31445 360.52734 C 958.13815 369.39524 948.33995 375.4025 936.96875 379.11133 C 925.66765 382.79742 913.50764 383.60163 900.93164 382.33789 C 892.15774 381.45627 883.70646 379.61976 875.79297 376.92578 L 875.79297 376.92383 C 872.35204 375.75221 868.97578 374.40678 865.67578 372.88086 C 854.76758 367.83712 845.09037 361.39984 836.73438 352.99609 C 828.34907 344.56276 821.6337 334.34585 816.6543 321.80664 C 811.6829 309.28656 809.14123 295.28328 809.14453 280.11719 C 809.14463 265.13589 811.69152 251.22694 816.66602 238.71484 C 821.64862 226.18252 828.3673 215.8912 836.75 207.32617 C 845.1006 198.79411 854.77052 192.31538 865.66602 187.28711 C 868.96322 185.76549 872.33534 184.42193 875.77344 183.25195 C 883.68034 180.56193 892.12809 178.72138 900.90039 177.83008 C 904.82892 177.43089 908.71902 177.24027 912.55664 177.28125 z M 799.78516 186.95703 C 799.6061 183.90727 799.65421 375.95082 799.80078 373.31641 C 787.32879 372.37477 774.8717 371.50783 762.37891 370.7207 C 762.42381 369.53519 761.95661 269.62819 762.13672 250.80078 C 745.28244 277.6085 726.02657 311.03652 709.84375 333.93945 C 690.83572 307.44825 675.11049 280.28099 656.79492 251.78516 C 656.29719 299.81038 657.1107 337.18616 657.9707 366.17383 C 645.43917 365.88197 632.91889 365.68443 620.37891 365.58008 C 618.10837 325.75718 618.13445 234.10735 620.4043 194.82812 C 632.86359 194.71801 645.30317 194.51515 657.75391 194.21875 C 674.91076 208.41718 691.9527 233.86914 709.44727 261.87305 C 727.8779 232.75694 745.00639 208.04582 762.60352 189.57227 C 775.01576 188.77826 787.39298 187.90469 799.78516 186.95703 z M 443.18555 190.16797 C 495.12048 193.2992 545.75478 194.90769 597.58008 194.92188 L 597.58594 194.92578 C 602.094 194.92677 606.60004 194.91518 611.10742 194.89258 C 610.65061 201.95147 610.26313 211.71377 609.9668 223.14844 C 605.4211 223.15984 600.87612 223.16456 596.33008 223.16406 L 596.32617 223.16016 C 579.03111 223.15816 561.77287 223.06976 544.45312 222.89258 C 543.11745 264.23637 543.42652 341.24438 546.10547 366.04883 C 533.5463 366.31324 520.99989 366.67065 508.43359 367.12109 C 505.30549 343.20104 505.04124 262.5399 506.46875 222.36523 C 484.47845 221.98039 462.6195 221.46118 440.63867 220.81836 C 441.11356 208.80114 441.86612 198.13314 443.18555 190.16797 z M 902.6543 214.93555 C 902.34536 214.92855 902.05541 214.93036 901.78516 214.94336 C 897.15386 215.15961 892.26624 216.15392 887.15234 217.90625 C 883.46014 219.17156 879.83351 220.91776 876.28711 223.15039 C 874.91961 224.01178 873.5632 224.94609 872.2168 225.95508 C 867.536 229.40293 863.2179 233.80904 859.2793 239.24414 C 855.3389 244.68187 852.16164 251.23325 849.77344 258.98242 C 848.97674 261.74694 848.25509 265.16694 847.61719 269.24805 C 846.97979 273.14382 846.66291 276.76897 846.66211 280.11523 C 846.66221 288.85856 848.09938 297.21273 850.95898 305.12305 C 853.97498 313.03959 857.92933 319.84207 862.80273 325.62695 C 866.77103 330.19657 871.26448 334.02339 876.26758 337.16406 L 876.26758 337.16602 C 877.60008 338.00206 878.9692 338.78928 880.375 339.5293 C 887.0437 343.04044 894.20987 344.98635 901.76367 345.33789 C 909.17237 345.68275 916.12769 344.47507 922.55859 341.55469 C 929.15589 338.45669 934.85444 334.05547 939.68164 328.21289 C 944.66304 322.37377 948.44386 315.39641 951.10156 307.24805 C 953.90486 298.9222 955.28206 289.81882 955.28516 280.12305 C 955.28516 274.18987 954.6292 268.04705 953.3125 261.77734 C 951.9953 255.50488 949.93788 249.4897 947.11328 243.79297 C 944.44038 238.08887 940.9241 232.99947 936.5332 228.52148 C 932.1415 224.04304 926.88263 220.56212 920.74023 218 C 919.82033 217.50968 918.51441 217.12831 916.82031 216.85352 C 915.12801 216.40325 913.35741 216.04747 911.50781 215.78516 C 909.65811 215.52298 907.80543 215.34989 905.95312 215.26367 C 904.68128 215.06463 903.58114 214.95642 902.6543 214.93555 z "
       transform="translate(-1412.6004,-610.52771)"
       id="path4229" />
    <path
       sodipodi:nodetypes="ccccc"
       inkscape:connector-curvature="0"
       id="path4139"
       d="m -1377.1173,-574.69083 0,488.392585 c 248.7671,-123.626245 870.33995,-122.947785 1119.54884,0 l 0,-488.392585 c -249.20889,122.94766 -870.78174,123.62616 -1119.54884,0 z"
       style="display:inline;opacity:1;fill:none;fill-opacity:1;fill-rule:evenodd;stroke:#000000;stroke-width:5;stroke-linecap:butt;stroke-linejoin:miter;stroke-miterlimit:4;stroke-dasharray:none;stroke-opacity:1" />
  </g>
</svg>
